Simulation
nRows=28
nColumns=15
endheader
time  TH_x TH_y TH_z SC_y  SC_z  SC_x  AC_y  AC_z  AC_x  GH_y  GH_z  GH_yy  EL_x  PS_y
0.0  0.000000  0.000000  0.000000  -32.29274925307152  0.9148827712049706  19.773294224495782  67.58577731060004  3.9645265381376187  -9.241862600057788  45.99197941263122  48.01537127202073  -54.589440491961966  24.087447491142903  0.000000
0.023  0.000000  0.000000  0.000000  -32.488317275632625  1.5924305177514593  20.527476718741262  67.51237889977294  4.86660598021063  -8.908814655953602  45.541896136519476  49.774320449253835  -54.64941668478215  24.43353735868072  0.000000
0.046  0.000000  0.000000  0.000000  -32.88578531949564  2.1842182282489713  20.838817462547674  67.34352426796161  5.256069378038681  -8.509197677249617  45.281714790771545  51.16324065670907  -54.68443872581253  25.084235340462588  0.000000
0.069  0.000000  0.000000  0.000000  -33.241633267631855  2.4865174751119974  20.979833795275933  67.23910866311876  5.419353814960792  -8.266549276806828  45.1472492324036  52.11419183228469  -54.84267449473896  25.58271935665931  0.000000
0.092  0.000000  0.000000  0.000000  -33.48472081938847  2.5781179003431864  21.053800504805686  67.17898681347918  5.3992856956154265  -8.241237600415793  45.125336721399826  52.697379159675194  -55.1494795696183  25.890566506218818  0.000000
0.11499999999999999  0.000000  0.000000  0.000000  -33.66843115683483  2.426820607935087  21.108487262577523  67.12519054426124  5.187924142452599  -8.429834063371386  45.23210507088518  52.99699285506914  -55.54737899645706  26.09490668804772  0.000000
0.138  0.000000  0.000000  0.000000  -33.782699568049495  2.144674944170492  21.134266537999974  67.0610513795764  4.818383043470769  -8.794435259255831  45.45504927408536  53.08402977035526  -56.05782932246645  26.22167365679121  0.000000
0.161  0.000000  0.000000  0.000000  -33.82528568933667  1.79050088542418  21.120637585518864  66.95405380985798  4.4025073286203265  -9.236304619515717  45.78701747161292  52.96646450595284  -56.63264355461666  26.263072585539284  0.000000
0.184  0.000000  0.000000  0.000000  -33.81192429275624  1.4327357932495581  21.034734197654178  66.83766096875819  4.0214682781352575  -9.675171904566247  46.18204182705953  52.7089352317554  -57.30042964100784  26.225605612364134  0.000000
0.207  0.000000  0.000000  0.000000  -33.77186402686572  1.1208686521511866  20.88244485454123  66.71791695779544  3.719562309067496  -10.022145947868552  46.62104498335689  52.35401286513102  -58.02740750875674  26.12178493055893  0.000000
0.22999999999999998  0.000000  0.000000  0.000000  -33.72314680407667  0.8820523889907889  20.667984893702716  66.62355032493882  3.5037471571958525  -10.243889642187376  47.06990507379078  51.96855636962628  -58.814361389189834  25.989157136099834  0.000000
0.253  0.000000  0.000000  0.000000  -33.6803637383164  0.7229426943163599  20.4159123698534  66.56256125344241  3.3699276238882216  -10.33124210215725  47.523295517350455  51.587333217054244  -59.63512058271525  25.852761931752337  0.000000
0.276  0.000000  0.000000  0.000000  -33.63873275093687  0.636281314563437  20.136723857875015  66.53353950545556  3.297924956405486  -10.299287537054184  47.968225120150805  51.24359252275092  -60.483425420527034  25.726925287114508  0.000000
0.299  0.000000  0.000000  0.000000  -33.5954157698087  0.6108604571911266  19.846839471791085  66.53183368106399  3.2726008114807876  -10.180319096984785  48.40955173016622  50.943055134735836  -61.34269838662021  25.618653308328742  0.000000
0.322  0.000000  0.000000  0.000000  -33.54546088828906  0.6277810267439295  19.552173229090513  66.54287788771452  3.2723716483958833  -9.99915837338088  48.8486961236627  50.68448656139133  -62.20079622810128  25.531086235927315  0.000000
0.345  0.000000  0.000000  0.000000  -33.48671529507644  0.6709250446741877  19.25887846841948  66.56718279089999  3.2842496021394822  -9.787174556714694  49.288670137663175  50.457480466974715  -63.050632303521496  25.462101591600007  0.000000
0.368  0.000000  0.000000  0.000000  -33.41761265429566  0.7251291218249977  18.97091685177809  66.5934994173779  3.2928270618132003  -9.55941194150841  49.73416800277722  50.246826603860235  -63.87996555907208  25.41074178941743  0.000000
0.391  0.000000  0.000000  0.000000  -33.33783203322468  0.7787636352808943  18.68976520059957  66.62764552718352  3.2904322508552077  -9.333646959907988  50.18486563930118  50.04150164113144  -64.68711680801124  25.37337106134506  0.000000
0.414  0.000000  0.000000  0.000000  -33.247768394077724  0.8245872228330089  18.418058423815943  66.66418108776436  3.269585088813092  -9.114047448517287  50.64504814270798  49.82851508052088  -65.46202954464832  25.34928132272065  0.000000
0.437  0.000000  0.000000  0.000000  -33.147862290571815  0.8577134457918212  18.15540687212776  66.70995211258965  3.228342658340061  -8.906227090658398  51.112831188221506  49.60251529117519  -66.20499545674355  25.3362160774626  0.000000
0.45999999999999996  0.000000  0.000000  0.000000  -33.03921803195297  0.8771115434799467  17.902929841984147  66.76332424310182  3.165925422501873  -8.707777490878447  51.59094675637124  49.35780489048609  -66.9089791978541  25.334539289094074  0.000000
0.483  0.000000  0.000000  0.000000  -32.923425558298284  0.8823410268928105  17.6594115847838  66.83033964558425  3.084462448827648  -8.517136350856418  52.07710771807652  49.09475034745565  -67.57485343144936  25.344644241385907  0.000000
0.506  0.000000  0.000000  0.000000  -32.802310154138084  0.8752085822870607  17.42495702831929  66.9114634600673  2.9868379248997776  -8.329610772837  52.57238239774989  48.81375690632967  -68.19846532683168  25.36773651486276  0.000000
0.529  0.000000  0.000000  0.000000  -32.677490614723155  0.8574328497761432  17.198683856019546  67.01058656580203  2.876477911278315  -8.141557800363831  53.074234883000386  48.51808042594193  -68.78078969383988  25.404762055357267  0.000000
0.552  0.000000  0.000000  0.000000  -32.550613262467344  0.8313645244381169  16.980568034849515  67.12788995681922  2.7565659643902913  -7.94951421406447  53.582285857548  48.211143676610526  -69.31994837556924  25.45672599324982  0.000000
0.575  0.000000  0.000000  0.000000  -32.42305324568134  0.798819959127819  16.7705183394633  67.26485904631828  2.6296584561349903  -7.751102573301713  54.09390000142882  47.896677615116715  -69.81715539832484  25.524395176617922  0.000000
0.598  0.000000  0.000000  0.000000  -32.29596128820152  0.7614634224052883  16.568840481739652  67.42046435050032  2.497697800739557  -7.545373930060838  54.60789786195702  47.57849373932083  -70.27216408096966  25.6080716210694  0.000000
0.621  0.000000  0.000000  0.000000  -32.170276973103476  0.7204318787595971  16.376069963116326  67.5942747775558  2.361895462900726  -7.332083631077729  55.12176461676552  47.259399954852384  -70.68664162295488  25.707850700970624  0.000000
